<?xml version="1.0" encoding="UTF-8" standalone="no"?>
<svg width="12px" height="12px" viewBox="0 0 12 12" version="1.1" xmlns="http://www.w3.org/2000/svg" xmlns:xlink="http://www.w3.org/1999/xlink">
    <!-- Generator: Sketch 3.8.2 (29753) - http://www.bohemiancoding.com/sketch -->
    <title>Slice 1</title>
    <desc>Created with Sketch.</desc>
    <defs></defs>
    <g id="Page-1" stroke="none" stroke-width="1" fill="none" fill-rule="evenodd">
        <path d="M12,11.0515312 L8.32769325,7.44152286 C8.97743839,6.64461322 9.25562878,5.73617594 9.25562878,4.62781439 C9.25562878,2.0718725 7.18375628,0 4.62781439,0 C2.07233528,0 0,2.0718725 0,4.62781439 C0,7.1832935 2.07233528,9.255166 4.62781439,9.255166 C5.74172932,9.255166 6.58748635,9.00867443 7.38624711,8.35291313 L11.0567027,11.9615331 L12,11.0515312 Z M0.925562878,4.62688883 C0.925562878,2.58185765 2.58278321,0.924174534 4.62781439,0.924174534 C6.67238279,0.924174534 8.33006591,2.58185765 8.33006591,4.62688883 C8.33052869,6.67192001 6.67284557,8.32914034 4.62781439,8.32914034 C2.58324599,8.32914034 0.925562878,6.67145723 0.925562878,4.62688883 Z" id="Search" fill="#8E8E93"></path>
    </g>
</svg>