<svg xmlns="http://www.w3.org/2000/svg" xmlns:xlink="http://www.w3.org/1999/xlink" version="1.1" x="0px" y="0px" viewBox="0 0 90 90" enable-background="new 0 0 90 90" xml:space="preserve"><g><path d="M74.617,26.507c-1.344-6.86-2.942-13.224-7.665-15.72c-1.261-0.664-2.57-1.001-3.893-1.001   c-3.111,0-5.765,1.907-7.214,3.696c-0.146,0.181-0.282,0.365-0.41,0.552c-0.084,0.006-0.175,0.016-0.236,0.027   c-1.136,0.204-1.854,1.008-2.249,1.923c-0.511,0.176-0.956,0.517-1.277,0.992c-0.52,0.769-0.456,1.48-0.35,1.935   c-0.231,0.287-0.678,0.781-1.114,1.261c-1.147,1.266-2.717,2.998-3.926,4.783l-3.09,4.572c-1.405,2.077-2.312,2.329-5.243,2.889   c-3.822,0.738-6.166,3.966-6.594,4.601l-3.79,5.608c-5.387,7.973-14.688,21.741-15.558,23.009c-1.145,1.669-1.579,3.125-1.328,4.45   c0.221,1.165,0.932,2.14,2.166,2.976c0.314,0.214,6.22,4.229,10.047,6.828l3.21,2.181c0.717,0.487,1.686,1.045,2.834,1.045   c1.896,0,3.252-1.487,4.327-2.94c0.762-1.029,6.769-9.911,18.362-27.153l1.032-1.534c0.607-0.899,2.535-4.123,1.821-7.844   c-0.566-2.941-0.666-3.882,0.736-5.955l3.091-4.574c1.21-1.785,2.234-3.892,2.982-5.43c0.279-0.575,0.567-1.167,0.752-1.494   c0.165-0.025,0.375-0.069,0.602-0.163c-0.402,3.114-0.915,7.283-0.768,11.805c0.076,2.365-0.101,4.94-0.257,7.212   c-0.331,4.822-0.444,7.401,0.837,8.774c0.487,0.522,1.15,0.808,1.866,0.808c0.057,0,0.236-0.01,0.293-0.015   c0.392-0.042,0.735-0.049,0.98-0.054c0.008,0.079,0.015,0.17,0.026,0.276c0.203,1.966,2.551,3.026,4.658,3.026   c1.336,0,2.523-0.4,3.431-1.154c0.483-0.401,1.107-0.712,1.711-1.013c1.349-0.673,3.387-1.69,3.128-4.191   C78.142,47.593,76.047,33.77,74.617,26.507z M30.309,44.475l1.039-1.538c1.609,1.289,4.524,3.555,7.221,5.287   c-3.485,4.727-11.482,16.654-14.147,20.642c-1.693-1.05-4.714-3.022-7.141-5.115C20.629,58.802,26.464,50.166,30.309,44.475z    M59.398,24.167c-0.285,0.421-0.621,1.112-1.086,2.068c-0.704,1.447-1.668,3.43-2.746,5.021l-3.092,4.575   c-2.127,3.146-1.874,5.155-1.244,8.433c0.496,2.592-1.127,5.091-1.314,5.369l-1.036,1.539   c-11.405,16.96-17.553,26.055-18.277,27.03c-1.15,1.556-1.617,1.601-1.667,1.601c-0.104,0-0.368-0.062-0.973-0.473l-3.21-2.182   c-4.286-2.912-10.197-6.933-10.043-6.827c0.469,0.317-0.731-0.605-0.778-0.856c-0.035-0.185-0.027-0.749,0.806-1.963   c0.11-0.16,0.353-0.518,0.706-1.039c3.741,3.16,8.434,5.883,8.655,6.011c0.256,0.147,0.535,0.218,0.812,0.218   c0.528,0,1.044-0.256,1.356-0.725c0.133-0.2,13.321-19.994,15.947-23.146c0.308-0.37,0.437-0.857,0.351-1.331   c-0.085-0.474-0.376-0.886-0.794-1.124c-2.947-1.683-6.809-4.7-8.594-6.135l0.92-1.361c0.186-0.275,1.889-2.705,4.478-3.205   c3.27-0.624,5.224-1.13,7.359-4.284l3.09-4.572c0.842-1.244,1.925-2.506,2.876-3.57c0.822,0.742,1.981,1.725,3.172,2.519   c0.277,0.185,0.591,0.273,0.901,0.273c0.526,0,1.042-0.254,1.356-0.725c0.499-0.748,0.296-1.759-0.451-2.257   c-1.043-0.695-2.093-1.591-2.832-2.259c0.045-0.06,0.097-0.125,0.134-0.18c0.358-0.531,0.751-1.511,0.864-1.575   c0.201-0.114,0.366-0.273,0.5-0.453l5.13,3.75c-0.062,0.141-0.111,0.289-0.132,0.445C60.525,22.903,59.761,23.631,59.398,24.167z    M73.942,52.728c-0.735,0.367-1.569,0.783-2.347,1.428c-0.66,0.546-2.282,0.322-2.713,0.056c-0.116-1.061-0.458-2.968-3.382-2.968   c-0.21,0-0.443,0.008-0.69,0.025c-0.227-1.114-0.036-3.901,0.108-6.002c0.162-2.35,0.344-5.015,0.263-7.545   c-0.144-4.426,0.373-8.416,0.787-11.621c0.538-4.159,0.835-6.45-0.614-7.626c-0.594-0.485-1.183-0.588-1.573-0.588   c-1.03,0-1.761,0.678-2.122,1.063l-3.694-2.7c0.131-0.238,0.274-0.467,0.453-0.689c0.922-1.138,2.692-2.467,4.641-2.467   c0.779,0,1.57,0.208,2.348,0.618c3.428,1.813,4.825,7.628,5.963,13.432c1.415,7.189,3.485,20.845,3.891,24.78   C75.15,52.125,74.394,52.502,73.942,52.728z"></path></g></svg>